<svg width="25" height="25" viewBox="0 0 25 25" fill="none" xmlns="http://www.w3.org/2000/svg">
<path d="M19.0882 6.17199C19.4927 6.17199 19.8206 5.84393 19.8206 5.43957V0.732422C19.8206 0.327873 19.4927 0 19.0882 0H13.5963C11.0296 0 8.94146 2.08817 8.94146 4.65488V9.4141H5.9082C5.50365 9.4141 5.17578 9.74197 5.17578 10.1465V14.8535C5.17578 15.258 5.50365 15.5859 5.9082 15.5859H8.94146V24.2676C8.94146 24.6721 9.26933 25 9.67388 25H14.381C14.7856 25 15.1134 24.6721 15.1134 24.2676V15.5859H18.1467C18.4959 15.5859 18.7965 15.3395 18.865 14.9971L19.8063 10.2901C19.8494 10.075 19.7937 9.85184 19.6545 9.68208C19.5154 9.51252 19.3075 9.4141 19.0882 9.4141H15.1134V6.17199H19.0882ZM14.381 10.8789H18.1948L17.5463 14.1211H14.381C13.9765 14.1211 13.6486 14.4489 13.6486 14.8535V23.5352H10.4063V14.8535C10.4063 14.4489 10.0784 14.1211 9.67388 14.1211H6.64062V10.8789H9.67388C10.0784 10.8789 10.4063 10.5511 10.4063 10.1465V4.65488C10.4063 2.89593 11.8374 1.46484 13.5963 1.46484H18.3558V4.70715H14.381C13.9765 4.70715 13.6486 5.03502 13.6486 5.43957V10.1465C13.6486 10.5511 13.9765 10.8789 14.381 10.8789Z" fill="white"/>
</svg>
