<svg width="25" height="25" viewBox="0 0 25 25" fill="none" xmlns="http://www.w3.org/2000/svg">
<path d="M10.5 8C7.46729 8 5 10.4673 5 13.5C5 16.5327 7.46729 19 10.5 19C13.5327 19 16 16.5327 16 13.5C16 10.4673 13.5327 8 10.5 8ZM10.5 17.7823C8.13878 17.7823 6.21771 15.8612 6.21771 13.5C6.21771 11.1388 8.13878 9.21771 10.5 9.21771C12.8614 9.21771 14.7823 11.1388 14.7823 13.5C14.7823 15.8612 12.8614 17.7823 10.5 17.7823Z" fill="white"/>
<path d="M19.7832 4.21675C18.3539 2.7872 16.4604 2 14.4519 2H7.54807C5.53961 2 3.64613 2.7872 2.21675 4.21675C0.787201 5.64613 0 7.53961 0 9.54807V16.4518C0 18.4604 0.787201 20.3539 2.21675 21.7832C3.64613 23.2128 5.53961 24 7.54807 24H14.4519C16.4604 24 18.3539 23.2128 19.7832 21.7832C21.2128 20.3539 22 18.4604 22 16.4518V9.54807C22 7.53961 21.2128 5.64613 19.7832 4.21675ZM20.7109 16.4518C20.7109 19.903 17.903 22.7109 14.4519 22.7109H7.54807C4.09697 22.7109 1.28906 19.903 1.28906 16.4518V9.54807C1.28906 6.09697 4.09697 3.28906 7.54807 3.28906H14.4519C17.903 3.28906 20.7109 6.09697 20.7109 9.54807V16.4518Z" fill="white"/>
<path d="M17 6C16.7365 6 16.4786 6.10729 16.2924 6.29349C16.1065 6.47943 16 6.7375 16 7C16 7.26328 16.1065 7.52135 16.2924 7.70729C16.4786 7.89349 16.7365 8 17 8C17.2625 8 17.5206 7.89349 17.7065 7.70729C17.8924 7.52135 18 7.26328 18 7C18 6.7375 17.8924 6.47943 17.7065 6.29349C17.5206 6.10755 17.2625 6 17 6Z" fill="white"/>
</svg>