<?xml version="1.0" encoding="utf-8"?>
<!-- Generator: Adobe Illustrator 23.1.0, SVG Export Plug-In . SVG Version: 6.00 Build 0)  -->
<svg version="1.1" id="Capa_1" xmlns="http://www.w3.org/2000/svg" xmlns:xlink="http://www.w3.org/1999/xlink" x="0px" y="0px"
	 viewBox="0 0 512 512" style="enable-background:new 0 0 512 512;" xml:space="preserve">
<g id="XMLID_1412_">
	<g id="XMLID_1341_">
		<path id="XMLID_1767_" d="M284.7,40.6v-8.2c0-15.8-12.9-28.7-28.7-28.7c-7.7,0-14.9,3-20.3,8.4s-8.4,12.6-8.4,20.3l0,8.2l-16.1,0
			c-2.4,0-4.7,0.9-6.3,2.6L118,130c0,0,0,0,0,0c-8.5,8.5-13.1,19.7-13.1,31.7l0,309.2c0,12,4.7,23.2,13.1,31.7
			c8.5,8.5,19.7,13.1,31.7,13.1l212.7,0c12.4,0,23.6-5,31.7-13.1c8.1-8.1,13.1-19.3,13.1-31.7l0-114.3c0-4.9-4-9-9-9c-4.9,0-9,4-9,9
			V471c0,14.8-12.1,26.9-26.9,26.9l-212.7,0c-7.2,0-13.9-2.8-19-7.9s-7.9-11.8-7.9-19l0-309.2c0-7.2,2.8-13.9,7.9-19l0,0l84.3-84.2
			l12.4,0l0,34c-10.7,8.6-17.1,21.6-17.1,35.6c0,25.2,20.5,45.7,45.7,45.7c12.2,0,23.7-4.8,32.3-13.4c8.6-8.6,13.4-20.1,13.4-32.3
			c0-13.9-6.3-26.9-17-35.5v-34l12.6,0l84.1,84.2c5.1,5.1,7.9,11.8,7.9,19V276c0,4.9,4,9,9,9c2.5,0,4.7-1,6.3-2.6
			c1.6-1.6,2.6-3.9,2.6-6.3V161.7c0-12-4.7-23.2-13.1-31.7l-86.7-86.8c-1.7-1.7-4-2.6-6.3-2.6L284.7,40.6z M248.4,24.8
			c2-2,4.7-3.1,7.6-3.1c5.9,0,10.8,4.8,10.8,10.8v75.9c0,2.9-1.1,5.6-3.1,7.6c-2,2-4.7,3.1-7.6,3.1c-5.9,0-10.8-4.8-10.8-10.8V32.4
			C245.3,29.6,246.4,26.9,248.4,24.8z M275.6,147.7c-5.2,5.2-12.2,8.1-19.6,8.1c-15.3,0-27.8-12.5-27.8-27.8c0-3,0.5-5.9,1.4-8.6
			c4.3,10.3,14.6,17.6,26.4,17.6c7.7,0,14.9-3,20.3-8.4c2.7-2.7,4.7-5.7,6.1-9.1c0.9,2.7,1.3,5.6,1.3,8.5
			C283.8,135.5,280.9,142.5,275.6,147.7z"/>
		<path id="XMLID_1789_" d="M391.9,310c-1.7,1.7-2.6,4-2.6,6.3c0,2.4,1,4.7,2.6,6.3c1.7,1.7,4,2.6,6.3,2.6c2.4,0,4.7-1,6.3-2.6
			c1.7-1.7,2.6-4,2.6-6.3c0-2.4-1-4.7-2.6-6.3c-1.7-1.7-4-2.6-6.3-2.6C395.9,307.4,393.6,308.3,391.9,310z"/>
	</g>
</g>
<path d="M245.6,277.8v66.8c0,5.7,4.6,10.4,10.4,10.4c5.7,0,10.4-4.6,10.4-10.4V278c33.9,6,51.9,40.8,51.9,66.6
	c0,5.7,4.6,10.4,10.4,10.4c5.7,0,10.4-4.6,10.4-10.4c0-40.3-28.8-81.9-72.7-87.6v-11c0-5.7-4.6-10.4-10.4-10.4
	c-5.7,0-10.4,4.6-10.4,10.4v10.9c-45.8,4.9-72.7,44.2-72.7,87.7c0,5.7,4.6,10.4,10.4,10.4c5.7,0,10.4-4.6,10.4-10.4
	C193.7,322.9,204.8,283.5,245.6,277.8L245.6,277.8z"/>
</svg>
