<svg width="25" height="25" viewBox="0 0 25 25" fill="none" xmlns="http://www.w3.org/2000/svg">
<g clip-path="url(#clip0)">
<path d="M17.0483 12.3897C16.7622 12.1036 16.2985 12.1036 16.0124 12.3895L14.8661 13.5358L11.4639 10.1339L12.6102 8.98756C12.8963 8.70165 12.8963 8.23778 12.6102 7.95187L9.83677 5.1782C9.69944 5.04068 9.51309 4.96362 9.31892 4.96362C9.12475 4.96362 8.93841 5.04068 8.80108 5.1782L5.7497 8.2292C4.6999 9.27938 4.6999 10.9882 5.75008 12.0386L12.9614 19.25C13.4687 19.7574 14.1451 20.0366 14.8661 20.0366C15.587 20.0366 16.2634 19.7574 16.7707 19.25L19.8219 16.1991C19.9593 16.0617 20.0365 15.8756 20.0365 15.6812C20.0365 15.4868 19.9593 15.3007 19.8219 15.1634L17.0483 12.3897ZM15.7351 18.2142C15.5045 18.4448 15.1958 18.5718 14.8661 18.5718C14.5363 18.5718 14.2277 18.4448 13.9971 18.2144L6.78596 11.0029C6.30684 10.5237 6.30665 9.74401 6.78558 9.26489L9.31892 6.73174L11.0565 8.46971L9.91039 9.61603C9.77287 9.75336 9.69581 9.93971 9.69581 10.1339C9.69581 10.3282 9.77287 10.5144 9.91039 10.6517L14.3482 15.0894C14.6341 15.3755 15.0978 15.3755 15.3839 15.0895L16.5302 13.9432L18.2682 15.6812L15.7351 18.2142Z" fill="white"/>
<path d="M21.3387 3.66116C18.9777 1.30043 15.8388 0.000190735 12.5 0C9.16119 0.000190735 6.02207 1.30043 3.66116 3.66116C1.30024 6.02226 -0.000190714 9.16119 2.09784e-08 12.4998C2.09784e-08 14.9351 0.696754 17.2827 2.01797 19.3111L1.00155 23.2656C0.93708 23.5165 1.00994 23.7827 1.19305 23.9658C1.37615 24.1489 1.64261 24.2218 1.89323 24.1573L5.91278 23.1243C7.88937 24.3525 10.1595 25 12.4998 25C15.8386 25 18.9777 23.6998 21.3387 21.3388C23.6998 18.9777 25 15.8388 25 12.4998C24.9998 9.161 23.6996 6.02207 21.3387 3.66116ZM12.4998 23.5352C10.3367 23.5352 8.24184 22.9088 6.44169 21.7239C6.32095 21.6444 6.18076 21.6032 6.03886 21.6032C5.97801 21.6032 5.91679 21.6108 5.8567 21.6263L2.72884 22.4302L3.51849 19.3581C3.57132 19.1526 3.53241 18.9342 3.41187 18.7597C2.13814 16.9144 1.46484 14.7497 1.46484 12.4998C1.46465 9.55238 2.61269 6.78139 4.69685 4.69704C6.7812 2.61288 9.55238 1.46484 12.5 1.46484C18.5846 1.46503 23.535 6.41537 23.5352 12.4998C23.5352 18.5846 18.5846 23.5352 12.4998 23.5352Z" fill="white"/>
</g>
<defs>
<clipPath id="clip0">
<rect width="25" height="25" fill="white"/>
</clipPath>
</defs>
</svg>
